<svg width="12" height="11" viewBox="0 0 12 11" fill="none" xmlns="http://www.w3.org/2000/svg">
<path d="M11.975 6.80522V10.928H9.58469V7.08152C9.58469 6.11571 9.23958 5.45615 8.37413 5.45615C7.71368 5.45615 7.32133 5.9002 7.14806 6.33016C7.08513 6.48382 7.06891 6.6972 7.06891 6.91271V10.9278H4.67845C4.67845 10.9278 4.71054 4.41316 4.67845 3.7388H7.06909V4.75755C7.06428 4.76558 7.0575 4.77342 7.05323 4.78109H7.06909V4.75755C7.38675 4.26877 7.95326 3.56999 9.22336 3.56999C10.796 3.56999 11.975 4.59748 11.975 6.80522ZM2.17783 0.273438C1.36015 0.273438 0.825195 0.810177 0.825195 1.51537C0.825195 2.20559 1.34464 2.75784 2.14645 2.75784H2.16196C2.99568 2.75784 3.51406 2.20559 3.51406 1.51537C3.4982 0.810177 2.99568 0.273438 2.17783 0.273438ZM0.967268 10.928H3.35684V3.7388H0.967268V10.928Z" fill="black"/>
</svg>
